<?xml version="1.0" encoding="UTF-8" standalone="no"?>
<!-- Generator: Adobe Illustrator 19.2.1, SVG Export Plug-In . SVG Version: 6.00 Build 0)  -->

<svg
   version="1.1"
   id="layer"
   x="0px"
   y="0px"
   viewBox="0 0 218.8 151.5"
   xml:space="preserve"
   sodipodi:docname="mercado-pago-logo-vector-2023.svg"
   width="218.8"
   height="151.5"
   inkscape:version="1.2.2 (b0a8486541, 2022-12-01)"
   xmlns:inkscape="http://www.inkscape.org/namespaces/inkscape"
   xmlns:sodipodi="http://sodipodi.sourceforge.net/DTD/sodipodi-0.dtd"
   xmlns="http://www.w3.org/2000/svg"
   xmlns:svg="http://www.w3.org/2000/svg"><defs
   id="defs19" /><sodipodi:namedview
   id="namedview17"
   pagecolor="#ffffff"
   bordercolor="#000000"
   borderopacity="0.25"
   inkscape:showpageshadow="2"
   inkscape:pageopacity="0.0"
   inkscape:pagecheckerboard="0"
   inkscape:deskcolor="#d1d1d1"
   showgrid="false"
   inkscape:zoom="1.208589"
   inkscape:cx="300.35025"
   inkscape:cy="76.949239"
   inkscape:window-width="2560"
   inkscape:window-height="1011"
   inkscape:window-x="0"
   inkscape:window-y="0"
   inkscape:window-maximized="1"
   inkscape:current-layer="layer" />
<style
   type="text/css"
   id="style2">
	.st0{fill:#00BCFF;}
	.st1{fill:#FFFFFF;}
	.st2{fill:#0A0080;}
</style>
<path
   class="st0"
   d="M 109.4,2.8 C 50.1,2.8 2,33.6 2,71.5 c 0,37.9 48.1,71.7 107.4,71.7 59.3,0 107.4,-33.7 107.4,-71.7 0,-38 -48.1,-68.7 -107.4,-68.7 z"
   id="path4" />
<path
   class="st1"
   d="m 74.4,50.3 c -0.1,0.1 -1.1,1.2 -0.4,2.1 1.7,2.1 6.8,3.3 12,2.2 3.1,-0.7 7,-3.8 10.9,-6.9 4.2,-3.3 8.3,-6.6 12.4,-7.9 4.4,-1.4 7.2,-0.8 9.1,-0.2 2,0.6 4.4,2 8.3,4.8 7.2,5.4 36.1,30.7 41.2,35 4,-1.8 23.2,-9.6 47.5,-14.9 -2.1,-13 -9.9,-25.3 -21.9,-35 -16.7,7 -38.4,11.2 -58.4,1.5 -0.1,0 -10.9,-5.1 -21.5,-4.9 -15.8,0.4 -22.7,7.2 -29.9,14.5 z"
   id="path6" />
<path
   class="st1"
   d="m 166.6,82.1 c -0.3,-0.3 -34,-29.8 -41.7,-35.5 -4.4,-3.3 -6.9,-4.2 -9.5,-4.5 -1.3,-0.2 -3.2,0.1 -4.5,0.4 -3.6,1 -8.2,4.1 -12.3,7.3 -4.3,3.4 -8.3,6.6 -12,7.4 -4.8,1.1 -10.6,-0.2 -13.3,-2 -1.1,-0.7 -1.8,-1.6 -2.2,-2.4 -1,-2.3 0.8,-4.1 1.1,-4.4 l 9.3,-10.1 c 1.1,-1.1 2.2,-2.2 3.3,-3.2 -3,0.4 -5.8,1.2 -8.5,1.9 -3.4,0.9 -6.6,1.8 -9.9,1.8 -1.4,0 -8.7,-1.2 -10.1,-1.6 -8.4,-2.3 -18,-4.5 -29,-9.7 C 14.1,37.3 5.5,49.4 2.9,63 c 1.9,0.5 6.9,1.6 8.2,1.9 29.9,6.7 39.2,13.5 40.9,14.9 1.8,-2 4.5,-3.3 7.4,-3.3 3.3,0 6.3,1.7 8.1,4.2 1.7,-1.4 4.1,-2.5 7.1,-2.5 1.4,0 2.8,0.3 4.3,0.7 3.4,1.2 5.1,3.4 6,5.4 1.1,-0.5 2.5,-0.9 4.2,-0.9 1.6,0 3.3,0.4 5,1.1 5.5,2.4 6.4,7.8 5.9,11.9 0.4,0 0.8,-0.1 1.2,-0.1 6.5,0 11.9,5.3 11.9,11.9 0,2 -0.5,3.9 -1.4,5.6 1.8,1 6.3,3.3 10.3,2.8 3.2,-0.4 4.4,-1.5 4.8,-2.1 0.3,-0.4 0.6,-0.9 0.3,-1.3 l -8.4,-9.4 c 0,0 -1.4,-1.3 -0.9,-1.8 0.5,-0.5 1.3,0.2 1.9,0.7 4.3,3.6 9.5,9 9.5,9 0.1,0.1 0.4,0.7 2.4,1.1 1.7,0.3 4.6,0.1 6.7,-1.6 0.5,-0.4 1,-1 1.5,-1.5 0,0 -0.1,0.1 -0.1,0.1 2.2,-2.8 -0.2,-5.6 -0.2,-5.6 l -9.9,-11.1 c 0,0 -1.4,-1.3 -0.9,-1.8 0.4,-0.5 1.3,0.2 2,0.7 3.1,2.6 7.5,7 11.8,11.2 0.8,0.6 4.5,2.9 9.5,-0.3 3,-2 3.6,-4.4 3.5,-6.2 -0.2,-2.4 -2.1,-4.1 -2.1,-4.1 L 139.9,79.1 c 0,0 -1.4,-1.2 -0.9,-1.8 0.4,-0.5 1.3,0.2 1.9,0.7 4.3,3.6 15.9,14.2 15.9,14.2 0.2,0.1 4.2,3 9.1,-0.2 1.8,-1.1 2.9,-2.8 3,-4.8 0.1,-3.1 -2.3,-5.1 -2.3,-5.1 z"
   id="path8" />
<path
   class="st1"
   d="m 101.3,99.2 c -2.1,0 -4.4,1.2 -4.7,1 -0.2,-0.1 0.1,-0.9 0.3,-1.4 0.2,-0.5 2.9,-8.7 -3.7,-11.6 -5.1,-2.2 -8.3,0.3 -9.3,1.4 -0.3,0.3 -0.4,0.3 -0.4,-0.1 C 83.4,87 82.7,83 78.3,81.6 72,79.7 67.9,84.1 66.9,85.7 c -0.5,-3.6 -3.5,-6.4 -7.2,-6.4 -4.1,0 -7.3,3.3 -7.4,7.3 0,4.1 3.3,7.3 7.3,7.3 2,0 3.8,-0.8 5.1,-2 0,0 0.1,0.1 0,0.2 -0.3,1.8 -0.9,8.4 6,11.1 2.8,1.1 5.1,0.3 7.1,-1.1 0.6,-0.4 0.7,-0.2 0.6,0.3 -0.3,1.7 0.1,5.3 5.2,7.4 3.9,1.6 6.2,0 7.7,-1.4 0.7,-0.6 0.8,-0.5 0.9,0.4 0.2,4.9 4.3,8.8 9.2,8.8 5.1,0 9.2,-4.1 9.2,-9.2 -0.1,-5 -4.2,-9.1 -9.3,-9.2 z"
   id="path10" />
<path
   class="st2"
   d="M 109.4,0 C 49,0 0,32.1 0,71.6 c 0,1 0,3.8 0,4.2 0,41.8 42.8,75.7 109.4,75.7 66.6,0 109.4,-33.9 109.4,-75.7 V 71.6 C 218.8,32.1 169.8,0 109.4,0 Z m 104.4,63.6 c -23.8,5.3 -41.5,13 -46,14.9 -10.4,-9.1 -34.4,-29.9 -40.9,-34.8 -3.7,-2.8 -6.2,-4.3 -8.5,-4.9 -1,-0.3 -2.4,-0.6 -4.2,-0.6 -1.7,0 -3.4,0.3 -5.3,0.9 -4.2,1.3 -8.4,4.7 -12.4,7.9 v 0.1 c -3.8,3 -7.7,6.1 -10.6,6.8 -1.3,0.3 -2.6,0.4 -3.9,0.4 -3.3,0 -6.3,-1 -7.4,-2.4 -0.2,-0.2 -0.1,-0.6 0.4,-1.2 l 0.1,-0.1 9.1,-9.8 c 7.2,-7.2 13.9,-13.9 29.5,-14.3 0.3,0 0.5,0 0.8,0 9.7,0 19.4,4.3 20.4,4.8 9.1,4.4 18.4,6.7 27.9,6.7 9.8,0 19.9,-2.4 30.5,-7.3 10.9,9.4 18.3,20.7 20.5,32.9 z M 109.4,4.2 c 32.1,0 60.8,9.2 80.1,23.7 -9.3,4 -18.2,6.1 -26.8,6.1 -8.8,0 -17.6,-2.1 -26.1,-6.3 -0.4,-0.2 -11.1,-5.3 -22.3,-5.3 -0.3,0 -0.6,0 -0.9,0 -13.1,0.3 -20.4,4.9 -25.4,9 -4.8,0.1 -9,1.3 -12.7,2.3 -3.3,0.9 -6.1,1.7 -8.9,1.7 -1.1,0 -3.2,-0.1 -3.4,-0.1 C 59.8,35.2 43.8,31.3 31,26.5 50.4,12.8 78.3,4.2 109.4,4.2 Z m -82,25.1 c 13.3,5.5 29.5,9.7 34.7,10 1.4,0.1 2.9,0.3 4.5,0.3 3.4,0 6.8,-1 10.1,-1.9 1.9,-0.5 4.1,-1.1 6.3,-1.6 -0.6,0.6 -1.2,1.2 -1.8,1.8 l -9.3,10 c -0.7,0.7 -2.3,2.7 -1.3,5.1 0.4,1 1.3,1.9 2.4,2.7 2.2,1.5 6.2,2.5 9.8,2.5 1.4,0 2.7,-0.1 3.9,-0.4 3.9,-0.9 8,-4.1 12.3,-7.6 3.4,-2.7 8.3,-6.2 12.1,-7.2 1.1,-0.3 2.3,-0.5 3.4,-0.5 0.3,0 0.6,0 0.9,0.1 2.5,0.3 4.9,1.2 9.1,4.4 7.6,5.7 41.3,35.2 41.6,35.5 0,0 2.2,1.9 2,5 -0.1,1.7 -1,3.2 -2.7,4.3 -1.4,0.9 -2.9,1.4 -4.4,1.4 -2.3,0 -3.8,-1.1 -3.9,-1.1 C 157,92 145.4,81.4 141.2,77.8 c -0.7,-0.6 -1.3,-1.1 -2,-1.1 -0.4,0 -0.7,0.2 -0.9,0.4 -0.7,0.8 0.1,2 1,2.7 l 13.5,13.6 c 0,0 1.7,1.6 1.9,3.7 0.1,2.2 -1,4.1 -3.2,5.6 -1.6,1.1 -3.2,1.6 -4.8,1.6 -2.1,0 -3.5,-0.9 -3.8,-1.2 l -1.9,-1.9 c -3.5,-3.5 -7.2,-7.1 -9.9,-9.3 -0.7,-0.5 -1.3,-1 -2,-1 -0.3,0 -0.6,0.1 -0.9,0.4 -0.3,0.3 -0.5,0.9 0.2,2 0.3,0.4 0.7,0.8 0.7,0.8 l 9.8,11.1 c 0.1,0.1 2,2.4 0.2,4.7 l -0.4,0.4 c -0.3,0.3 -0.6,0.6 -0.9,0.9 -1.7,1.4 -3.9,1.5 -4.8,1.5 -0.5,0 -0.9,0 -1.3,-0.1 -1,-0.2 -1.6,-0.4 -1.9,-0.8 l -0.1,-0.1 c -0.5,-0.6 -5.5,-5.6 -9.6,-9 -0.5,-0.5 -1.2,-1 -1.9,-1 -0.3,0 -0.6,0.1 -0.9,0.4 -0.8,0.9 0.4,2.2 0.9,2.7 l 8.4,9.3 c 0,0.1 -0.1,0.3 -0.3,0.6 -0.3,0.4 -1.3,1.4 -4.4,1.8 -0.4,0 -0.7,0.1 -1.1,0.1 -3.1,0 -6.5,-1.5 -8.2,-2.4 0.8,-1.7 1.2,-3.5 1.2,-5.3 0,-6.9 -5.6,-12.5 -12.5,-12.5 -0.1,0 -0.3,0 -0.4,0 0.2,-3.2 -0.2,-9.1 -6.4,-11.8 -1.8,-0.8 -3.5,-1.2 -5.2,-1.2 -1.3,0 -2.6,0.2 -3.8,0.7 -1.3,-2.5 -3.4,-4.3 -6.1,-5.2 -1.5,-0.5 -3,-0.8 -4.5,-0.8 -2.6,0 -4.9,0.8 -7,2.2 -2,-2.5 -5,-4 -8.2,-4 -2.8,0 -5.5,1.1 -7.5,3.1 -2.6,-2 -13,-8.6 -40.7,-14.9 C 10.2,64.2 7.2,63.3 5.3,62.8 7.7,50.1 15.6,38.7 27.4,29.3 Z m 51.4,72.3 -0.3,-0.3 h -0.3 c -0.2,0 -0.5,0.1 -0.8,0.3 -1.4,1 -2.8,1.5 -4.1,1.5 -0.8,0 -1.5,-0.2 -2.3,-0.4 -6.4,-2.5 -5.9,-8.6 -5.6,-10.4 0,-0.4 0,-0.7 -0.3,-0.9 L 64.6,91 64.2,91.4 c -1.3,1.2 -2.9,1.9 -4.6,1.9 -3.7,0 -6.7,-3 -6.7,-6.7 0,-3.7 3,-6.7 6.7,-6.7 3.3,0 6.2,2.5 6.6,5.8 l 0.2,1.8 1,-1.5 c 0.1,-0.2 2.8,-4.3 7.8,-4.3 0.9,0 1.9,0.2 2.9,0.5 4,1.2 4.6,4.8 4.7,6.3 0.1,0.9 0.7,0.9 0.8,0.9 0.3,0 0.6,-0.2 0.8,-0.4 0.7,-0.8 2.4,-2.1 4.9,-2.1 1.2,0 2.4,0.3 3.7,0.8 6.3,2.7 3.4,10.7 3.4,10.8 -0.5,1.3 -0.6,1.9 -0.1,2.2 l 0.2,0.1 h 0.2 c 0.3,0 0.6,-0.1 1.2,-0.3 0.9,-0.3 2.1,-0.7 3.4,-0.7 v 0 c 4.7,0.1 8.6,3.9 8.6,8.6 0,4.7 -3.9,8.6 -8.6,8.6 -4.6,0 -8.4,-3.6 -8.6,-8.2 0,-0.4 -0.1,-1.4 -0.9,-1.4 -0.4,0 -0.7,0.2 -1,0.5 -1,0.9 -2.3,1.9 -4.2,1.9 -0.9,0 -1.8,-0.2 -2.8,-0.6 -4.9,-2 -5,-5.3 -4.8,-6.7 0,-0.3 0.1,-0.6 -0.2,-0.9 z m 30.6,37.2 C 51.3,138.8 4.2,108.7 4.2,71.5 c 0,-1.5 0.1,-3 0.3,-4.5 0.5,0.1 5.1,1.2 6,1.4 28.3,6.3 37.7,12.8 39.3,14.1 -0.5,1.3 -0.8,2.7 -0.8,4.1 0,5.9 4.8,10.6 10.6,10.6 0.7,0 1.3,-0.1 2,-0.2 0.9,4.3 3.7,7.6 8,9.3 1.3,0.5 2.5,0.7 3.8,0.7 0.8,0 1.6,-0.1 2.4,-0.3 0.8,2 2.6,4.5 6.6,6.2 1.4,0.6 2.8,0.9 4.2,0.9 1.1,0 2.2,-0.2 3.2,-0.6 1.9,4.7 6.5,7.8 11.6,7.8 3.4,0 6.6,-1.4 9,-3.8 2,1.1 6.3,3.2 10.6,3.2 0.6,0 1.1,0 1.6,-0.1 4.3,-0.5 6.3,-2.2 7.2,-3.5 0.2,-0.2 0.3,-0.5 0.4,-0.7 1,0.3 2.1,0.5 3.4,0.5 2.3,0 4.6,-0.8 6.9,-2.4 2.2,-1.6 3.8,-3.9 4,-5.9 0,0 0,-0.1 0,-0.1 0.8,0.2 1.5,0.2 2.3,0.2 2.4,0 4.8,-0.7 7,-2.2 4.4,-2.9 5.1,-6.6 5.1,-9 0.8,0.2 1.5,0.2 2.3,0.2 2.3,0 4.5,-0.7 6.6,-2 2.7,-1.7 4.3,-4.4 4.6,-7.5 0.2,-2.1 -0.4,-4.2 -1.5,-6 7.3,-3.1 24,-9.2 43.6,-13.7 0.1,1.1 0.1,2.2 0.1,3.4 0,37.1 -47.1,67.2 -105.2,67.2 z"
   id="path12" />

</svg>
